<svg xmlns="http://www.w3.org/2000/svg" xmlns:xlink="http://www.w3.org/1999/xlink" viewBox="0 0 24 24" version="1.1" width="96" height="96" style="fill: rgb(255, 255, 255);">
<g id="surface1">
<path style="fill: #000" d="M 12 0 C 5.363281 0 0 5.363281 0 12 C 0 18.636719 5.363281 24 12 24 C 18.636719 24 24 18.636719 24 12 C 24 5.363281 18.636719 0 12 0 Z M 12 2 C 17.566406 2 22 6.433594 22 12 C 22 17.566406 17.566406 22 12 22 C 6.433594 22 2 17.566406 2 12 C 2 6.433594 6.433594 2 12 2 Z M 8 8 C 6.894531 8 6 8.894531 6 10 C 6 11.105469 6.894531 12 8 12 C 9.105469 12 10 11.105469 10 10 C 10 8.894531 9.105469 8 8 8 Z M 16 8 C 14.894531 8 14 8.894531 14 10 C 14 11.105469 14.894531 12 16 12 C 17.105469 12 18 11.105469 18 10 C 18 8.894531 17.105469 8 16 8 Z M 12 14 C 9.582031 14 7.464844 15.171875 6.1875 17.03125 L 7.8125 18.15625 C 8.734375 16.816406 10.21875 16 12 16 C 13.78125 16 15.265625 16.816406 16.1875 18.15625 L 17.8125 17.03125 C 16.535156 15.171875 14.417969 14 12 14 Z "/>
</g>
</svg>