<svg xmlns="http://www.w3.org/2000/svg" xmlns:xlink="http://www.w3.org/1999/xlink" viewBox="0 0 24 24" version="1.1" width="96" height="96" style="fill: rgb(255, 255, 255);">
<g id="surface1">
<path style=" " d="M 0.09375 0 C 0.09375 2.777344 1.195313 4.65625 1.875 5.5625 C 0.691406 7.421875 0 9.628906 0 12 C 0 18.636719 5.363281 24 12 24 C 18.636719 24 24 18.636719 24 12 C 24 9.628906 23.308594 7.421875 22.125 5.5625 C 22.804688 4.65625 23.90625 2.777344 23.90625 0 C 22.625 1.601563 20.953125 2.496094 19.875 2.96875 C 17.765625 1.128906 15.023438 0 12 0 C 8.976563 0 6.234375 1.128906 4.125 2.96875 C 3.046875 2.496094 1.375 1.601563 0.09375 0 Z M 12 2 C 17.566406 2 22 6.433594 22 12 C 22 17.566406 17.566406 22 12 22 C 6.433594 22 2 17.566406 2 12 C 2 6.433594 6.433594 2 12 2 Z M 5 8 C 5 10.898438 6.898438 12 8 12 C 10.5 12 11 10 11 10 Z M 19 8 L 13 10 C 13 10 13.5 12 16 12 C 17.101563 12 19 10.898438 19 8 Z M 6 14 L 6 15.40625 C 6 17.378906 7.621094 19 9.59375 19 L 14.40625 19 C 16.378906 19 18 17.378906 18 15.40625 L 18 14 Z M 8.28125 16 L 10 16 L 10 17 L 9.59375 17 C 8.992188 17 8.546875 16.539063 8.28125 16 Z M 11 16 L 13 16 L 13 17 L 11 17 Z M 14 16 L 15.71875 16 C 15.453125 16.539063 15.007813 17 14.40625 17 L 14 17 Z "/>
</g>
</svg>