<svg xmlns="http://www.w3.org/2000/svg" xmlns:xlink="http://www.w3.org/1999/xlink" viewBox="0 0 24 24" version="1.1" width="96" height="96" style="fill: rgb(255, 255, 255);">
<g id="surface1">
<path style=" " d="M 12 0 C 5.363281 0 0 5.363281 0 12 C 0 18.636719 5.363281 24 12 24 C 18.636719 24 24 18.636719 24 12 C 24 5.363281 18.636719 0 12 0 Z M 12 2 C 17.566406 2 22 6.433594 22 12 C 22 17.566406 17.566406 22 12 22 C 6.433594 22 2 17.566406 2 12 C 2 6.433594 6.433594 2 12 2 Z M 6.59375 8 C 6.09375 8 5.707031 8.199219 5.40625 8.5 C 5.105469 8.800781 5 9.101563 5 9.5 C 5 9.898438 5.199219 10.289063 5.5 10.6875 C 5.699219 11.085938 6.09375 11.5 6.59375 12 C 6.992188 12.398438 7.5 12.789063 8 13.1875 C 8.601563 12.789063 9.007813 12.394531 9.40625 12.09375 C 9.90625 11.695313 10.199219 11.210938 10.5 10.8125 C 10.800781 10.3125 11 9.804688 11 9.40625 C 11 9.105469 10.800781 8.800781 10.5 8.5 C 10.199219 8.199219 9.804688 8 9.40625 8 C 8.707031 8 8.300781 8.5 8 9 C 7.699219 8.5 7.292969 8 6.59375 8 Z M 14.59375 8 C 14.09375 8 13.707031 8.199219 13.40625 8.5 C 13.105469 8.800781 13 9.101563 13 9.5 C 13 9.898438 13.199219 10.3125 13.5 10.8125 C 13.699219 11.210938 14.09375 11.59375 14.59375 12.09375 C 14.992188 12.492188 15.5 12.914063 16 13.3125 C 16.601563 12.8125 17.007813 12.394531 17.40625 12.09375 C 17.90625 11.695313 18.199219 11.210938 18.5 10.8125 C 18.800781 10.3125 19 9.804688 19 9.40625 C 19 9.105469 18.800781 8.800781 18.5 8.5 C 18.199219 8.199219 17.804688 8 17.40625 8 C 16.707031 8 16.300781 8.5 16 9 C 15.699219 8.5 15.292969 8 14.59375 8 Z M 7.8125 14.84375 L 6.1875 15.96875 C 7.464844 17.828125 9.582031 19 12 19 C 14.417969 19 16.535156 17.828125 17.8125 15.96875 L 16.1875 14.84375 C 15.265625 16.183594 13.78125 17 12 17 C 10.21875 17 8.734375 16.183594 7.8125 14.84375 Z "/>
</g>
</svg>