<svg width="246" height="247" viewBox="0 0 246 247" fill="none" xmlns="http://www.w3.org/2000/svg">
<path d="M136 191L151 155" stroke="#2196F3" stroke-width="5" stroke-miterlimit="10" stroke-linecap="round"/>
<path d="M115 200L134 155" stroke="#2196F3" stroke-width="5" stroke-miterlimit="10" stroke-linecap="round"/>
<path d="M103 191L119 155" stroke="#2196F3" stroke-width="5" stroke-miterlimit="10" stroke-linecap="round"/>
<path d="M83 200L101 155" stroke="#2196F3" stroke-width="5" stroke-miterlimit="10" stroke-linecap="round"/>
<path d="M68 191L83 155" stroke="#2196F3" stroke-width="5" stroke-miterlimit="10" stroke-linecap="round"/>
<path d="M168.388 92.52C168.809 90.2883 168.809 88.0568 168.809 85.8251C168.809 64.8479 152.766 47.8877 132.923 47.8877C118.991 47.8877 106.747 56.3678 100.837 68.8649C95.7705 64.4017 89.4376 61.2775 82.2604 61.2775C67.0616 61.2775 54.8181 74.2208 54.8181 90.2883C54.8181 91.181 54.8181 91.6274 54.8181 92.52C38.3528 92.52 25.2649 106.356 25.2649 123.763C25.2649 141.169 38.3528 155.006 54.8181 155.006H160.365C161.631 155.006 162.899 155.006 164.166 154.559H164.587C181.052 154.559 194.141 140.722 194.141 123.316C194.141 107.249 182.742 94.3053 168.388 92.52Z" fill="#BBDEFB"/>
</svg>
